<?xml version="1.0" encoding="utf-8"?>
<!-- Generator: Adobe Illustrator 27.5.0, SVG Export Plug-In . SVG Version: 6.00 Build 0)  -->
<svg version="1.1" xmlns="http://www.w3.org/2000/svg" xmlns:xlink="http://www.w3.org/1999/xlink" x="0px" y="0px"
	 viewBox="0 0 500 500" style="enable-background:new 0 0 500 500;" xml:space="preserve">
<g id="Background">
	<g>
		<path style="fill:#C6FF00;" d="M429.224,294.436c-1.601-13.164-4.819-26.338-8.649-38.788
			c-4.295-13.962-9.293-28.107-8.772-42.706c0.367-10.296,3.476-20.277,5.03-30.462c2.485-16.293,0.945-33.063-3.343-48.977
			c-3.086-11.452-7.672-22.672-15-31.997c-6.559-8.347-15.142-14.947-24.382-20.174C349.69,67.52,321.1,63.165,293.109,61.297
			c-26.884-1.794-54.308-1.465-80.184,6.045c-32.588,9.459-59.756,31.695-75.139,61.834c-16.623,32.567-26.241,69.152-49.546,98.007
			c-12.296,15.225-28.345,28.174-35.383,46.435c-10.065,26.116,2.442,57.57,25.263,73.774
			c14.392,10.219,31.821,15.104,47.459,23.288c14.432,7.553,27.248,17.872,41.463,25.827
			c52.166,29.192,116.919,23.458,174.593,7.737c28.813-7.854,59.021-19.483,75.534-44.366
			C429.852,340.765,432.044,317.616,429.224,294.436z"/>
		<path style="opacity:0.8;fill:#FFFFFF;" d="M429.224,294.436c-1.601-13.164-4.819-26.338-8.649-38.788
			c-4.295-13.962-9.293-28.107-8.772-42.706c0.367-10.296,3.476-20.277,5.03-30.462c2.485-16.293,0.945-33.063-3.343-48.977
			c-3.086-11.452-7.672-22.672-15-31.997c-6.559-8.347-15.142-14.947-24.382-20.174C349.69,67.52,321.1,63.165,293.109,61.297
			c-26.884-1.794-54.308-1.465-80.184,6.045c-32.588,9.459-59.756,31.695-75.139,61.834c-16.623,32.567-26.241,69.152-49.546,98.007
			c-12.296,15.225-28.345,28.174-35.383,46.435c-10.065,26.116,2.442,57.57,25.263,73.774
			c14.392,10.219,31.821,15.104,47.459,23.288c14.432,7.553,27.248,17.872,41.463,25.827
			c52.166,29.192,116.919,23.458,174.593,7.737c28.813-7.854,59.021-19.483,75.534-44.366
			C429.852,340.765,432.044,317.616,429.224,294.436z"/>
	</g>
</g>
<g id="Shadow">
	<ellipse style="fill:#263238;" cx="256.282" cy="424.229" rx="168.791" ry="11.619"/>
</g>
<g id="Plants">
	<g>
		<g>
			<path style="fill:#C6FF00;" d="M154.881,336.691c-0.698-3.379-1.63-8.227-2.481-14.087c-0.25-1.69-0.485-3.484-0.71-5.331
				c0.755-0.143,6.796-1.325,9.15-2.989c2.139-1.513,4.443-4.034,4.531-6.805c0.087-2.713-2.008-5.145-4.83-4.95
				c-3.918,0.272-7.546,6.355-8.388,9.759c-0.054,0.218-0.401,2.866-0.549,4.221c-0.132-1.117-0.266-2.225-0.384-3.39
				c-0.182-1.674-0.32-3.449-0.464-5.169c-0.042-0.894-0.084-1.798-0.126-2.71c-0.062-0.92-0.009-1.803-0.02-2.72
				c0.014-1.342,0.096-2.726,0.174-4.107c1.716-0.082,6.747-0.413,9.015-1.547c2.343-1.171,5.002-3.314,5.509-6.039
				c0.496-2.669-1.205-5.391-4.025-5.625c-3.914-0.325-8.421,5.138-9.769,8.376c-0.044,0.105-0.258,0.819-0.503,1.668
				c0.118-1.346,0.23-2.691,0.396-4.051c0.466-3.859,1.062-7.775,1.642-11.702c0.121-0.818,0.229-1.637,0.347-2.456
				c1.444-0.062,6.898-0.372,9.275-1.56c2.343-1.171,5.002-3.314,5.509-6.04c0.496-2.669-1.205-5.391-4.025-5.625
				c-3.914-0.325-8.421,5.139-9.769,8.376c-0.048,0.116-0.301,0.969-0.577,1.925c0.285-2.137,0.542-4.273,0.731-6.398
				c0.336-3.718,0.465-7.398,0.308-10.973c0.51-0.017,6.911-0.25,9.553-1.571c2.343-1.171,5.002-3.314,5.509-6.039
				c0.496-2.669-1.205-5.391-4.025-5.625c-3.914-0.325-8.421,5.139-9.769,8.376c-0.096,0.23-0.99,3.322-1.272,4.437
				c-0.002-0.042,0.001-0.087-0.001-0.129c-0.199-3.751-0.853-7.308-1.637-10.65c-0.777-3.336-1.792-6.412-2.8-9.216
				c-1.001-2.809-2.089-5.317-3.071-7.529c-0.541-1.193-1.057-2.275-1.55-3.279c0.015,0.005,0.08,0.023,0.08,0.023
				c0.07,0.019-0.117-4.748-0.163-5.047c-0.536-3.466-3.608-9.848-7.487-10.467c-2.794-0.446-5.096,1.791-5.252,4.501
				c-0.158,2.768,1.912,5.484,3.908,7.18c2.045,1.738,7.363,3.36,8.688,3.745c0.491,1.053,1.003,2.183,1.543,3.446
				c0.931,2.227,1.962,4.751,2.897,7.569c0.251,0.75,0.491,1.568,0.738,2.355c-0.691-1.241-1.664-2.932-1.777-3.086
				c-2.072-2.829-7.74-7.077-11.467-5.839c-2.685,0.891-3.697,3.938-2.587,6.414c1.135,2.53,4.224,3.985,6.777,4.572
				c2.664,0.612,8.261-0.444,9.483-0.689c0.519,1.754,1.012,3.567,1.415,5.488c0.701,3.304,1.274,6.861,1.389,10.548
				c0.006,0.205-0.012,0.418-0.007,0.624c-0.236-0.673-1.792-4.27-1.93-4.509c-1.749-3.039-6.916-7.884-10.756-7.063
				c-2.767,0.591-4.108,3.508-3.275,6.092c0.85,2.639,3.76,4.425,6.234,5.288c2.85,0.994,9.477,0.361,9.726,0.337
				c0.064,3.454-0.134,7.006-0.538,10.602c-0.289,2.607-0.689,5.235-1.115,7.868c-0.327-0.868-1.775-4.211-1.907-4.441
				c-1.749-3.039-6.916-7.884-10.757-7.063c-2.767,0.591-4.107,3.508-3.275,6.091c0.85,2.639,3.761,4.426,6.234,5.288
				c2.782,0.971,9.134,0.393,9.67,0.342c-0.194,1.196-0.383,2.391-0.587,3.588c-0.664,3.908-1.348,7.822-1.903,11.706
				c-0.193,1.346-0.333,2.678-0.48,4.014c-0.53-1.286-1.54-3.608-1.649-3.798c-1.749-3.04-6.916-7.884-10.757-7.063
				c-2.767,0.592-4.108,3.508-3.276,6.092c0.85,2.639,3.761,4.425,6.234,5.288c2.484,0.867,7.836,0.496,9.341,0.37
				c-0.227,2.222-0.404,4.432-0.474,6.616c-0.01,0.942-0.081,1.904-0.038,2.809c0.023,0.913,0.045,1.817,0.068,2.712
				c0.111,1.85,0.209,3.569,0.357,5.288c0.069,0.87,0.154,1.688,0.231,2.532c-0.342-1.384-0.92-3.567-0.995-3.76
				c-1.268-3.269-5.642-8.841-9.562-8.611c-2.825,0.165-4.592,2.845-4.161,5.525c0.441,2.737,3.047,4.944,5.361,6.172
				c2.551,1.353,8.706,1.755,9.46,1.8c0.2,2.064,0.414,4.072,0.65,5.947c0.731,5.935,1.565,10.85,2.197,14.284
				c0.632,3.428,1.077,5.397,1.077,5.397l0.004,0.017c0.001,0.008,0.003,0.015,0.005,0.023c0.184,0.739,0.933,1.189,1.672,1.005
				c0.739-0.184,1.189-0.933,1.005-1.672C156.054,341.967,155.582,340.076,154.881,336.691z"/>
			<path style="fill:#C6FF00;" d="M151.515,239.531c0.005-0.001,6.6-2.014,8.89-4.067c1.951-1.748,3.95-4.517,3.719-7.28
				c-0.226-2.705-2.586-4.881-5.367-4.362c-3.861,0.72-6.765,7.18-7.21,10.659C151.508,234.782,151.447,239.552,151.515,239.531z"/>
		</g>
		<g>
			<path style="fill:#C6FF00;" d="M154.965,343.691c0.561,0.515,0.599,1.387,0.084,1.949c-0.515,0.561-1.387,0.599-1.949,0.084
				c-0.006-0.005-0.012-0.011-0.017-0.016l-0.012-0.012c0,0-1.457-1.396-3.875-3.907c-2.421-2.516-5.828-6.155-9.712-10.702
				c-1.231-1.434-2.517-2.991-3.823-4.602c-0.653,0.378-6.008,3.439-8.883,3.717c-2.607,0.253-5.998-0.15-7.876-2.19
				c-1.838-1.997-1.843-5.207,0.423-6.903c3.143-2.354,9.864-0.12,12.726,1.907c0.169,0.12,1.855,1.622,2.904,2.587
				c-0.53-0.661-1.052-1.297-1.589-1.984c-1.072-1.352-2.102-2.732-3.215-4.214c-0.512-0.734-1.03-1.476-1.553-2.225
				c-0.534-0.731-1.006-1.572-1.517-2.364c-1.146-1.86-2.218-3.801-3.255-5.78c-1.186,0.936-5.445,4.197-7.996,4.845
				c-2.539,0.645-5.952,0.76-8.117-0.972c-2.119-1.696-2.61-4.868-0.629-6.888c2.751-2.803,9.733-1.613,12.868-0.043
				c0.196,0.098,2.319,1.477,3.471,2.258c-0.614-1.194-1.233-2.384-1.814-3.612c-1.679-3.546-3.269-7.188-4.87-10.814
				c-0.49-1.111-0.992-2.212-1.49-3.316c-0.418,0.338-5.397,4.324-8.254,5.049c-2.539,0.645-5.952,0.76-8.117-0.972
				c-2.119-1.696-2.61-4.868-0.628-6.888c2.75-2.803,9.732-1.613,12.868-0.043c0.236,0.119,3.289,2.108,4.04,2.652
				c-1.098-2.431-2.214-4.844-3.411-7.178c-1.647-3.223-3.442-6.293-5.4-9.14c-0.194,0.158-5.372,4.342-8.298,5.085
				c-2.539,0.645-5.952,0.76-8.117-0.972c-2.12-1.696-2.61-4.868-0.629-6.888c2.75-2.804,9.732-1.613,12.868-0.043
				c0.246,0.123,3.529,2.265,4.097,2.696c-0.117-0.169-0.219-0.357-0.338-0.524c-2.13-3.012-4.57-5.663-6.977-8.032
				c-1.396-1.38-2.807-2.62-4.208-3.796c-0.884,0.878-4.97,4.846-7.53,5.806c-2.452,0.919-5.832,1.409-8.174-0.074
				c-2.293-1.453-3.129-4.552-1.381-6.777c2.426-3.089,9.496-2.672,12.785-1.456c0.179,0.066,1.923,0.94,3.184,1.594
				c-0.64-0.521-1.291-1.07-1.914-1.558c-2.335-1.834-4.587-3.371-6.592-4.715c-1.146-0.755-2.198-1.415-3.188-2.023
				c-1.318,0.409-6.647,1.99-9.312,1.669c-2.6-0.314-5.826-1.437-7.22-3.833c-1.366-2.346-0.679-5.482,1.897-6.651
				c3.576-1.623,9.659,2.005,12.018,4.6c0.204,0.224,2.989,4.098,2.92,4.12c0,0-0.064,0.02-0.079,0.025
				c0.965,0.565,1.993,1.182,3.102,1.879c2.038,1.303,4.33,2.794,6.714,4.585c2.387,1.784,4.931,3.789,7.419,6.142
				c2.498,2.356,5.005,4.961,7.241,7.98c0.025,0.034,0.047,0.073,0.072,0.107c-0.38-1.086-1.34-4.158-1.387-4.403
				c-0.662-3.444,0.083-10.487,3.527-12.376c2.481-1.36,5.402-0.029,6.46,2.471c1.081,2.553,0.045,5.807-1.263,8.076
				c-1.475,2.559-6.685,6.285-7.101,6.581c2.103,2.895,4.026,6.036,5.797,9.322c1.015,1.877,1.978,3.8,2.92,5.74
				c-0.298-0.95-0.557-1.801-0.581-1.924c-0.662-3.444,0.084-10.487,3.527-12.375c2.481-1.36,5.401-0.029,6.46,2.471
				c1.081,2.553,0.045,5.807-1.263,8.077c-1.328,2.302-5.705,5.569-6.876,6.418c0.353,0.748,0.715,1.491,1.065,2.24
				c1.683,3.595,3.346,7.19,5.085,10.666c0.612,1.225,1.261,2.409,1.905,3.597c-0.264-0.844-0.479-1.557-0.501-1.669
				c-0.662-3.444,0.083-10.487,3.527-12.375c2.481-1.36,5.402-0.029,6.46,2.471c1.081,2.553,0.045,5.807-1.263,8.076
				c-1.267,2.197-5.281,5.248-6.666,6.264c0.697,1.195,1.392,2.395,2.121,3.522c0.515,0.759,0.958,1.525,1.518,2.258
				c0.539,0.737,1.072,1.467,1.6,2.191c1.069,1.355,2.163,2.76,3.238,4.055c0.741,0.907,1.464,1.757,2.19,2.616
				c-0.624-1.212-1.795-3.612-1.87-3.823c-1.176-3.304-1.506-10.379,1.612-12.767c2.246-1.72,5.335-0.847,6.76,1.464
				c1.455,2.36,0.924,5.733-0.025,8.175c-1.045,2.687-5.431,7.005-5.983,7.541c1.206,1.417,2.393,2.784,3.533,4.055
				c3.943,4.418,7.395,7.948,9.841,10.381C153.527,342.373,154.965,343.691,154.965,343.691z M94.669,260.756
				c0.003-0.004,4.394-5.321,5.172-8.296c0.662-2.534,0.802-5.947-0.915-8.124c-1.681-2.131-4.85-2.644-6.883-0.677
				c-2.823,2.73-1.682,9.721-0.134,12.868C92.043,256.798,94.623,260.811,94.669,260.756z"/>
			<path style="opacity:0.1;" d="M154.965,343.691c0.561,0.515,0.599,1.387,0.084,1.949c-0.515,0.561-1.387,0.599-1.949,0.084
				c-0.006-0.005-0.012-0.011-0.017-0.016l-0.012-0.012c0,0-1.457-1.396-3.875-3.907c-2.421-2.516-5.828-6.155-9.712-10.702
				c-1.231-1.434-2.517-2.991-3.823-4.602c-0.653,0.378-6.008,3.439-8.883,3.717c-2.607,0.253-5.998-0.15-7.876-2.19
				c-1.838-1.997-1.843-5.207,0.423-6.903c3.143-2.354,9.864-0.12,12.726,1.907c0.169,0.12,1.855,1.622,2.904,2.587
				c-0.53-0.661-1.052-1.297-1.589-1.984c-1.072-1.352-2.102-2.732-3.215-4.214c-0.512-0.734-1.03-1.476-1.553-2.225
				c-0.534-0.731-1.006-1.572-1.517-2.364c-1.146-1.86-2.218-3.801-3.255-5.78c-1.186,0.936-5.445,4.197-7.996,4.845
				c-2.539,0.645-5.952,0.76-8.117-0.972c-2.119-1.696-2.61-4.868-0.629-6.888c2.751-2.803,9.733-1.613,12.868-0.043
				c0.196,0.098,2.319,1.477,3.471,2.258c-0.614-1.194-1.233-2.384-1.814-3.612c-1.679-3.546-3.269-7.188-4.87-10.814
				c-0.49-1.111-0.992-2.212-1.49-3.316c-0.418,0.338-5.397,4.324-8.254,5.049c-2.539,0.645-5.952,0.76-8.117-0.972
				c-2.119-1.696-2.61-4.868-0.628-6.888c2.75-2.803,9.732-1.613,12.868-0.043c0.236,0.119,3.289,2.108,4.04,2.652
				c-1.098-2.431-2.214-4.844-3.411-7.178c-1.647-3.223-3.442-6.293-5.4-9.14c-0.194,0.158-5.372,4.342-8.298,5.085
				c-2.539,0.645-5.952,0.76-8.117-0.972c-2.12-1.696-2.61-4.868-0.629-6.888c2.75-2.804,9.732-1.613,12.868-0.043
				c0.246,0.123,3.529,2.265,4.097,2.696c-0.117-0.169-0.219-0.357-0.338-0.524c-2.13-3.012-4.57-5.663-6.977-8.032
				c-1.396-1.38-2.807-2.62-4.208-3.796c-0.884,0.878-4.97,4.846-7.53,5.806c-2.452,0.919-5.832,1.409-8.174-0.074
				c-2.293-1.453-3.129-4.552-1.381-6.777c2.426-3.089,9.496-2.672,12.785-1.456c0.179,0.066,1.923,0.94,3.184,1.594
				c-0.64-0.521-1.291-1.07-1.914-1.558c-2.335-1.834-4.587-3.371-6.592-4.715c-1.146-0.755-2.198-1.415-3.188-2.023
				c-1.318,0.409-6.647,1.99-9.312,1.669c-2.6-0.314-5.826-1.437-7.22-3.833c-1.366-2.346-0.679-5.482,1.897-6.651
				c3.576-1.623,9.659,2.005,12.018,4.6c0.204,0.224,2.989,4.098,2.92,4.12c0,0-0.064,0.02-0.079,0.025
				c0.965,0.565,1.993,1.182,3.102,1.879c2.038,1.303,4.33,2.794,6.714,4.585c2.387,1.784,4.931,3.789,7.419,6.142
				c2.498,2.356,5.005,4.961,7.241,7.98c0.025,0.034,0.047,0.073,0.072,0.107c-0.38-1.086-1.34-4.158-1.387-4.403
				c-0.662-3.444,0.083-10.487,3.527-12.376c2.481-1.36,5.402-0.029,6.46,2.471c1.081,2.553,0.045,5.807-1.263,8.076
				c-1.475,2.559-6.685,6.285-7.101,6.581c2.103,2.895,4.026,6.036,5.797,9.322c1.015,1.877,1.978,3.8,2.92,5.74
				c-0.298-0.95-0.557-1.801-0.581-1.924c-0.662-3.444,0.084-10.487,3.527-12.375c2.481-1.36,5.401-0.029,6.46,2.471
				c1.081,2.553,0.045,5.807-1.263,8.077c-1.328,2.302-5.705,5.569-6.876,6.418c0.353,0.748,0.715,1.491,1.065,2.24
				c1.683,3.595,3.346,7.19,5.085,10.666c0.612,1.225,1.261,2.409,1.905,3.597c-0.264-0.844-0.479-1.557-0.501-1.669
				c-0.662-3.444,0.083-10.487,3.527-12.375c2.481-1.36,5.402-0.029,6.46,2.471c1.081,2.553,0.045,5.807-1.263,8.076
				c-1.267,2.197-5.281,5.248-6.666,6.264c0.697,1.195,1.392,2.395,2.121,3.522c0.515,0.759,0.958,1.525,1.518,2.258
				c0.539,0.737,1.072,1.467,1.6,2.191c1.069,1.355,2.163,2.76,3.238,4.055c0.741,0.907,1.464,1.757,2.19,2.616
				c-0.624-1.212-1.795-3.612-1.87-3.823c-1.176-3.304-1.506-10.379,1.612-12.767c2.246-1.72,5.335-0.847,6.76,1.464
				c1.455,2.36,0.924,5.733-0.025,8.175c-1.045,2.687-5.431,7.005-5.983,7.541c1.206,1.417,2.393,2.784,3.533,4.055
				c3.943,4.418,7.395,7.948,9.841,10.381C153.527,342.373,154.965,343.691,154.965,343.691z M94.669,260.756
				c0.003-0.004,4.394-5.321,5.172-8.296c0.662-2.534,0.802-5.947-0.915-8.124c-1.681-2.131-4.85-2.644-6.883-0.677
				c-2.823,2.73-1.682,9.721-0.134,12.868C92.043,256.798,94.623,260.811,94.669,260.756z"/>
		</g>
	</g>
	<g>
		<g>
			<g>
				<path style="fill:#C6FF00;" d="M129.37,409.638c-0.846-3.344-1.991-8.147-3.1-13.964c-0.324-1.677-0.639-3.46-0.944-5.295
					c0.748-0.176,6.731-1.623,9.009-3.39c2.07-1.605,4.26-4.225,4.226-6.998c-0.033-2.714-2.233-5.052-5.044-4.732
					c-3.903,0.445-7.258,6.682-7.949,10.12c-0.044,0.22-0.274,2.88-0.362,4.241c-0.181-1.11-0.364-2.211-0.533-3.37
					c-0.256-1.664-0.472-3.432-0.691-5.144c-0.081-0.892-0.163-1.792-0.246-2.702c-0.103-0.916-0.089-1.801-0.14-2.716
					c-0.045-1.342-0.024-2.728-0.007-4.111c1.711-0.158,6.722-0.71,8.938-1.943c2.289-1.273,4.851-3.531,5.237-6.276
					c0.378-2.688-1.442-5.332-4.269-5.442c-3.924-0.152-8.186,5.505-9.39,8.799c-0.039,0.107-0.221,0.829-0.429,1.689
					c0.058-1.35,0.111-2.698,0.216-4.064c0.296-3.876,0.718-7.814,1.125-11.763c0.085-0.823,0.157-1.646,0.239-2.469
					c1.44-0.126,6.874-0.676,9.197-1.967c2.289-1.273,4.851-3.531,5.237-6.277c0.378-2.688-1.442-5.332-4.269-5.442
					c-3.924-0.152-8.186,5.505-9.39,8.799c-0.043,0.117-0.258,0.981-0.491,1.949c0.19-2.148,0.353-4.293,0.448-6.425
					c0.171-3.729,0.138-7.412-0.177-10.976c0.508-0.039,6.893-0.555,9.474-1.991c2.289-1.273,4.851-3.531,5.237-6.277
					c0.378-2.688-1.442-5.332-4.269-5.442c-3.924-0.152-8.186,5.505-9.39,8.799c-0.086,0.234-0.842,3.362-1.075,4.489
					c-0.004-0.042-0.003-0.087-0.007-0.129c-0.365-3.739-1.175-7.263-2.105-10.568c-0.923-3.298-2.074-6.326-3.204-9.084
					c-1.124-2.762-2.322-5.22-3.4-7.386c-0.593-1.168-1.157-2.226-1.694-3.207c0.016,0.004,0.081,0.02,0.081,0.02
					c0.07,0.016-0.326-4.738-0.385-5.035c-0.688-3.439-4.039-9.679-7.941-10.126c-2.811-0.322-5.012,2.014-5.048,4.728
					c-0.036,2.772,2.152,5.394,4.221,7.001c2.12,1.646,7.504,3.031,8.844,3.358c0.537,1.03,1.099,2.137,1.694,3.374
					c1.028,2.184,2.169,4.66,3.228,7.434c0.284,0.738,0.56,1.545,0.841,2.321c-0.745-1.21-1.792-2.856-1.911-3.005
					c-2.195-2.734-8.045-6.728-11.713-5.327c-2.643,1.009-3.52,4.097-2.301,6.522c1.245,2.477,4.396,3.795,6.972,4.268
					c2.688,0.493,8.233-0.808,9.443-1.106c0.596,1.729,1.169,3.519,1.656,5.42c0.846,3.27,1.575,6.798,1.853,10.477
					c0.016,0.204,0.007,0.418,0.02,0.623c-0.265-0.662-1.979-4.187-2.127-4.419c-1.882-2.959-7.257-7.571-11.058-6.582
					c-2.738,0.713-3.949,3.686-3.004,6.23c0.965,2.599,3.952,4.255,6.461,5.008c2.891,0.867,9.483-0.058,9.731-0.093
					c0.216,3.448,0.175,7.004-0.07,10.616c-0.174,2.617-0.457,5.26-0.767,7.91c-0.365-0.853-1.959-4.129-2.101-4.352
					c-1.882-2.959-7.257-7.571-11.058-6.581c-2.738,0.713-3.949,3.685-3.004,6.23c0.966,2.599,3.952,4.255,6.461,5.008
					c2.822,0.847,9.143-0.011,9.675-0.085c-0.141,1.203-0.277,2.405-0.428,3.61c-0.492,3.934-1.001,7.874-1.385,11.779
					c-0.133,1.353-0.214,2.69-0.302,4.031c-0.586-1.262-1.698-3.537-1.815-3.721c-1.882-2.959-7.257-7.571-11.058-6.582
					c-2.738,0.713-3.949,3.686-3.004,6.23c0.965,2.599,3.952,4.255,6.461,5.008c2.52,0.757,7.85,0.15,9.348-0.042
					c-0.129,2.23-0.208,4.446-0.181,6.631c0.032,0.942,0.003,1.905,0.086,2.807c0.063,0.911,0.125,1.813,0.187,2.706
					c0.193,1.843,0.366,3.557,0.59,5.267c0.107,0.866,0.228,1.68,0.342,2.519c-0.403-1.367-1.076-3.523-1.16-3.712
					c-1.411-3.21-6.026-8.583-9.933-8.181c-2.815,0.29-4.462,3.045-3.913,5.703c0.561,2.715,3.262,4.805,5.628,5.929
					c2.609,1.24,8.775,1.369,9.53,1.381c0.291,2.053,0.594,4.05,0.912,5.913c0.992,5.897,2.042,10.77,2.825,14.173
					c0.783,3.397,1.314,5.344,1.314,5.344l0.005,0.017c0.002,0.008,0.004,0.015,0.006,0.022c0.217,0.73,0.984,1.146,1.715,0.93
					c0.73-0.217,1.146-0.984,0.93-1.715C130.773,414.858,130.219,412.989,129.37,409.638z"/>
				<path style="fill:#C6FF00;" d="M121.72,312.722c0.005-0.002,6.505-2.304,8.702-4.455c1.872-1.833,3.746-4.687,3.394-7.437
					c-0.345-2.692-2.799-4.762-5.554-4.121c-3.825,0.89-6.442,7.471-6.733,10.966C121.503,307.978,121.653,312.746,121.72,312.722z"
					/>
			</g>
			<g>
				<path style="fill:#C6FF00;" d="M125.623,411.051c-2.551-2.323-6.155-5.697-10.289-9.937c-1.195-1.22-2.441-2.533-3.709-3.895
					c0.527-0.559,4.718-5.067,5.644-7.798c0.84-2.481,1.222-5.875-0.336-8.168c-1.525-2.245-4.649-2.982-6.818-1.164
					c-3.009,2.523-2.368,9.577-1.047,12.826c0.085,0.208,1.36,2.554,2.037,3.737c-0.763-0.826-1.523-1.643-2.303-2.517
					c-1.132-1.247-2.287-2.602-3.414-3.909c-0.559-0.699-1.124-1.405-1.695-2.118c-0.591-0.708-1.068-1.454-1.616-2.189
					c-0.778-1.094-1.525-2.261-2.274-3.425c1.34-1.076,5.215-4.3,6.383-6.552c1.207-2.325,2.098-5.622,0.906-8.124
					c-1.168-2.451-4.144-3.652-6.563-2.184c-3.357,2.038-3.791,9.107-2.978,12.519c0.026,0.111,0.273,0.813,0.574,1.645
					c-0.696-1.158-1.396-2.312-2.062-3.509c-1.891-3.396-3.711-6.914-5.551-10.431c-0.383-0.733-0.777-1.459-1.163-2.191
					c1.132-0.9,5.361-4.356,6.586-6.715c1.207-2.325,2.098-5.622,0.906-8.124c-1.168-2.451-4.144-3.652-6.563-2.183
					c-3.357,2.038-3.791,9.108-2.978,12.519c0.029,0.122,0.326,0.961,0.665,1.896c-1.026-1.896-2.074-3.775-3.17-5.606
					c-1.914-3.205-3.974-6.258-6.202-9.057c0.402-0.313,5.443-4.266,6.804-6.888c1.207-2.325,2.098-5.621,0.906-8.124
					c-1.168-2.451-4.144-3.652-6.563-2.184c-3.357,2.039-3.79,9.108-2.977,12.519c0.058,0.242,1.153,3.269,1.58,4.337
					c-0.027-0.033-0.05-0.071-0.077-0.104c-2.367-2.918-4.986-5.41-7.585-7.653c-2.59-2.242-5.22-4.133-7.683-5.809
					c-2.461-1.684-4.816-3.073-6.91-4.285c-1.139-0.647-2.193-1.219-3.182-1.741c0.015-0.006,0.078-0.029,0.078-0.029
					c0.068-0.025-2.886-3.772-3.099-3.987c-2.471-2.488-8.708-5.844-12.209-4.065c-2.522,1.281-3.07,4.445-1.602,6.728
					c1.499,2.332,4.771,3.312,7.382,3.511c2.676,0.204,7.931-1.611,9.229-2.078c1.016,0.563,2.096,1.176,3.274,1.88
					c2.063,1.254,4.38,2.69,6.794,4.419c0.644,0.459,1.319,0.98,1.981,1.472c-1.289-0.598-3.07-1.394-3.251-1.452
					c-3.34-1.07-10.421-1.174-12.709,2.019c-1.648,2.3-0.676,5.359,1.679,6.71c2.405,1.379,5.76,0.74,8.17-0.286
					c2.514-1.071,6.421-5.216,7.266-6.132c1.451,1.113,2.916,2.29,4.371,3.607c2.509,2.261,5.064,4.801,7.325,7.716
					c0.126,0.162,0.236,0.345,0.361,0.509c-0.586-0.405-3.96-2.4-4.212-2.513c-3.202-1.43-10.23-2.312-12.853,0.611
					c-1.891,2.105-1.261,5.252,0.932,6.853c2.239,1.635,5.644,1.369,8.152,0.613c2.89-0.871,7.878-5.28,8.065-5.446
					c2.082,2.757,4.01,5.746,5.798,8.893c1.299,2.279,2.521,4.64,3.724,7.02c-0.775-0.51-3.912-2.363-4.153-2.471
					c-3.202-1.43-10.23-2.311-12.854,0.611c-1.891,2.105-1.261,5.252,0.932,6.853c2.239,1.635,5.644,1.369,8.152,0.613
					c2.822-0.85,7.62-5.053,8.023-5.408c0.546,1.081,1.096,2.159,1.635,3.247c1.76,3.552,3.509,7.12,5.343,10.589
					c0.635,1.202,1.305,2.362,1.971,3.529c-1.185-0.729-3.367-2.014-3.567-2.103c-3.202-1.43-10.23-2.311-12.854,0.61
					c-1.89,2.105-1.26,5.253,0.932,6.853c2.239,1.635,5.644,1.369,8.152,0.613c2.519-0.759,6.63-4.206,7.774-5.193
					c1.123,1.931,2.279,3.823,3.507,5.631c0.546,0.768,1.054,1.587,1.62,2.294c0.555,0.725,1.105,1.443,1.649,2.154
					c1.178,1.431,2.267,2.764,3.397,4.067c0.567,0.663,1.117,1.275,1.675,1.912c-1.09-0.918-2.841-2.344-3.015-2.456
					c-2.948-1.899-9.761-3.834-12.798-1.344c-2.188,1.794-2.042,5.001-0.118,6.915c1.966,1.955,5.371,2.208,7.965,1.841
					c2.859-0.405,8.074-3.699,8.71-4.106c1.376,1.552,2.729,3.051,4.022,4.429c4.081,4.371,7.645,7.856,10.175,10.263
					c2.526,2.401,4.044,3.732,4.044,3.732l0.013,0.012c0.006,0.005,0.012,0.01,0.018,0.015c0.584,0.489,1.453,0.413,1.943-0.17
					c0.489-0.584,0.413-1.453-0.17-1.943C129.673,414.63,128.179,413.377,125.623,411.051z"/>
				<path style="fill:#C6FF00;" d="M65.777,334.436c0.003-0.004,4.155-5.51,4.801-8.516c0.55-2.561,0.539-5.976-1.272-8.075
					c-1.773-2.055-4.962-2.428-6.906-0.373c-2.7,2.852-1.251,9.785,0.434,12.861C62.979,330.598,65.735,334.493,65.777,334.436z"/>
			</g>
		</g>
		<g style="opacity:0.1;">
			<g>
				<path d="M129.37,409.638c-0.846-3.344-1.991-8.147-3.1-13.964c-0.324-1.677-0.639-3.46-0.944-5.295
					c0.748-0.176,6.731-1.623,9.009-3.39c2.07-1.605,4.26-4.225,4.226-6.998c-0.033-2.714-2.233-5.052-5.044-4.732
					c-3.903,0.445-7.258,6.682-7.949,10.12c-0.044,0.22-0.274,2.88-0.362,4.241c-0.181-1.11-0.364-2.211-0.533-3.37
					c-0.256-1.664-0.472-3.432-0.691-5.144c-0.081-0.892-0.163-1.792-0.246-2.702c-0.103-0.916-0.089-1.801-0.14-2.716
					c-0.045-1.342-0.024-2.728-0.007-4.111c1.711-0.158,6.722-0.71,8.938-1.943c2.289-1.273,4.851-3.531,5.237-6.276
					c0.378-2.688-1.442-5.332-4.269-5.442c-3.924-0.152-8.186,5.505-9.39,8.799c-0.039,0.107-0.221,0.829-0.429,1.689
					c0.058-1.35,0.111-2.698,0.216-4.064c0.296-3.876,0.718-7.814,1.125-11.763c0.085-0.823,0.157-1.646,0.239-2.469
					c1.44-0.126,6.874-0.676,9.197-1.967c2.289-1.273,4.851-3.531,5.237-6.277c0.378-2.688-1.442-5.332-4.269-5.442
					c-3.924-0.152-8.186,5.505-9.39,8.799c-0.043,0.117-0.258,0.981-0.491,1.949c0.19-2.148,0.353-4.293,0.448-6.425
					c0.171-3.729,0.138-7.412-0.177-10.976c0.508-0.039,6.893-0.555,9.474-1.991c2.289-1.273,4.851-3.531,5.237-6.277
					c0.378-2.688-1.442-5.332-4.269-5.442c-3.924-0.152-8.186,5.505-9.39,8.799c-0.086,0.234-0.842,3.362-1.075,4.489
					c-0.004-0.042-0.003-0.087-0.007-0.129c-0.365-3.739-1.175-7.263-2.105-10.568c-0.923-3.298-2.074-6.326-3.204-9.084
					c-1.124-2.762-2.322-5.22-3.4-7.386c-0.593-1.168-1.157-2.226-1.694-3.207c0.016,0.004,0.081,0.02,0.081,0.02
					c0.07,0.016-0.326-4.738-0.385-5.035c-0.688-3.439-4.039-9.679-7.941-10.126c-2.811-0.322-5.012,2.014-5.048,4.728
					c-0.036,2.772,2.152,5.394,4.221,7.001c2.12,1.646,7.504,3.031,8.844,3.358c0.537,1.03,1.099,2.137,1.694,3.374
					c1.028,2.184,2.169,4.66,3.228,7.434c0.284,0.738,0.56,1.545,0.841,2.321c-0.745-1.21-1.792-2.856-1.911-3.005
					c-2.195-2.734-8.045-6.728-11.713-5.327c-2.643,1.009-3.52,4.097-2.301,6.522c1.245,2.477,4.396,3.795,6.972,4.268
					c2.688,0.493,8.233-0.808,9.443-1.106c0.596,1.729,1.169,3.519,1.656,5.42c0.846,3.27,1.575,6.798,1.853,10.477
					c0.016,0.204,0.007,0.418,0.02,0.623c-0.265-0.662-1.979-4.187-2.127-4.419c-1.882-2.959-7.257-7.571-11.058-6.582
					c-2.738,0.713-3.949,3.686-3.004,6.23c0.965,2.599,3.952,4.255,6.461,5.008c2.891,0.867,9.483-0.058,9.731-0.093
					c0.216,3.448,0.175,7.004-0.07,10.616c-0.174,2.617-0.457,5.26-0.767,7.91c-0.365-0.853-1.959-4.129-2.101-4.352
					c-1.882-2.959-7.257-7.571-11.058-6.581c-2.738,0.713-3.949,3.685-3.004,6.23c0.966,2.599,3.952,4.255,6.461,5.008
					c2.822,0.847,9.143-0.011,9.675-0.085c-0.141,1.203-0.277,2.405-0.428,3.61c-0.492,3.934-1.001,7.874-1.385,11.779
					c-0.133,1.353-0.214,2.69-0.302,4.031c-0.586-1.262-1.698-3.537-1.815-3.721c-1.882-2.959-7.257-7.571-11.058-6.582
					c-2.738,0.713-3.949,3.686-3.004,6.23c0.965,2.599,3.952,4.255,6.461,5.008c2.52,0.757,7.85,0.15,9.348-0.042
					c-0.129,2.23-0.208,4.446-0.181,6.631c0.032,0.942,0.003,1.905,0.086,2.807c0.063,0.911,0.125,1.813,0.187,2.706
					c0.193,1.843,0.366,3.557,0.59,5.267c0.107,0.866,0.228,1.68,0.342,2.519c-0.403-1.367-1.076-3.523-1.16-3.712
					c-1.411-3.21-6.026-8.583-9.933-8.181c-2.815,0.29-4.462,3.045-3.913,5.703c0.561,2.715,3.262,4.805,5.628,5.929
					c2.609,1.24,8.775,1.369,9.53,1.381c0.291,2.053,0.594,4.05,0.912,5.913c0.992,5.897,2.042,10.77,2.825,14.173
					c0.783,3.397,1.314,5.344,1.314,5.344l0.005,0.017c0.002,0.008,0.004,0.015,0.006,0.022c0.217,0.73,0.984,1.146,1.715,0.93
					c0.73-0.217,1.146-0.984,0.93-1.715C130.773,414.858,130.219,412.989,129.37,409.638z"/>
				<path d="M121.72,312.722c0.005-0.002,6.505-2.304,8.702-4.455c1.872-1.833,3.746-4.687,3.394-7.437
					c-0.345-2.692-2.799-4.762-5.554-4.121c-3.825,0.89-6.442,7.471-6.733,10.966C121.503,307.978,121.653,312.746,121.72,312.722z"
					/>
			</g>
			<g>
				<path d="M125.623,411.051c-2.551-2.323-6.155-5.697-10.289-9.937c-1.195-1.22-2.441-2.533-3.709-3.895
					c0.527-0.559,4.718-5.067,5.644-7.798c0.84-2.481,1.222-5.875-0.336-8.168c-1.525-2.245-4.649-2.982-6.818-1.164
					c-3.009,2.523-2.368,9.577-1.047,12.826c0.085,0.208,1.36,2.554,2.037,3.737c-0.763-0.826-1.523-1.643-2.303-2.517
					c-1.132-1.247-2.287-2.602-3.414-3.909c-0.559-0.699-1.124-1.405-1.695-2.118c-0.591-0.708-1.068-1.454-1.616-2.189
					c-0.778-1.094-1.525-2.261-2.274-3.425c1.34-1.076,5.215-4.3,6.383-6.552c1.207-2.325,2.098-5.622,0.906-8.124
					c-1.168-2.451-4.144-3.652-6.563-2.184c-3.357,2.038-3.791,9.107-2.978,12.519c0.026,0.111,0.273,0.813,0.574,1.645
					c-0.696-1.158-1.396-2.312-2.062-3.509c-1.891-3.396-3.711-6.914-5.551-10.431c-0.383-0.733-0.777-1.459-1.163-2.191
					c1.132-0.9,5.361-4.356,6.586-6.715c1.207-2.325,2.098-5.622,0.906-8.124c-1.168-2.451-4.144-3.652-6.563-2.183
					c-3.357,2.038-3.791,9.108-2.978,12.519c0.029,0.122,0.326,0.961,0.665,1.896c-1.026-1.896-2.074-3.775-3.17-5.606
					c-1.914-3.205-3.974-6.258-6.202-9.057c0.402-0.313,5.443-4.266,6.804-6.888c1.207-2.325,2.098-5.621,0.906-8.124
					c-1.168-2.451-4.144-3.652-6.563-2.184c-3.357,2.039-3.79,9.108-2.977,12.519c0.058,0.242,1.153,3.269,1.58,4.337
					c-0.027-0.033-0.05-0.071-0.077-0.104c-2.367-2.918-4.986-5.41-7.585-7.653c-2.59-2.242-5.22-4.133-7.683-5.809
					c-2.461-1.684-4.816-3.073-6.91-4.285c-1.139-0.647-2.193-1.219-3.182-1.741c0.015-0.006,0.078-0.029,0.078-0.029
					c0.068-0.025-2.886-3.772-3.099-3.987c-2.471-2.488-8.708-5.844-12.209-4.065c-2.522,1.281-3.07,4.445-1.602,6.728
					c1.499,2.332,4.771,3.312,7.382,3.511c2.676,0.204,7.931-1.611,9.229-2.078c1.016,0.563,2.096,1.176,3.274,1.88
					c2.063,1.254,4.38,2.69,6.794,4.419c0.644,0.459,1.319,0.98,1.981,1.472c-1.289-0.598-3.07-1.394-3.251-1.452
					c-3.34-1.07-10.421-1.174-12.709,2.019c-1.648,2.3-0.676,5.359,1.679,6.71c2.405,1.379,5.76,0.74,8.17-0.286
					c2.514-1.071,6.421-5.216,7.266-6.132c1.451,1.113,2.916,2.29,4.371,3.607c2.509,2.261,5.064,4.801,7.325,7.716
					c0.126,0.162,0.236,0.345,0.361,0.509c-0.586-0.405-3.96-2.4-4.212-2.513c-3.202-1.43-10.23-2.312-12.853,0.611
					c-1.891,2.105-1.261,5.252,0.932,6.853c2.239,1.635,5.644,1.369,8.152,0.613c2.89-0.871,7.878-5.28,8.065-5.446
					c2.082,2.757,4.01,5.746,5.798,8.893c1.299,2.279,2.521,4.64,3.724,7.02c-0.775-0.51-3.912-2.363-4.153-2.471
					c-3.202-1.43-10.23-2.311-12.854,0.611c-1.891,2.105-1.261,5.252,0.932,6.853c2.239,1.635,5.644,1.369,8.152,0.613
					c2.822-0.85,7.62-5.053,8.023-5.408c0.546,1.081,1.096,2.159,1.635,3.247c1.76,3.552,3.509,7.12,5.343,10.589
					c0.635,1.202,1.305,2.362,1.971,3.529c-1.185-0.729-3.367-2.014-3.567-2.103c-3.202-1.43-10.23-2.311-12.854,0.61
					c-1.89,2.105-1.26,5.253,0.932,6.853c2.239,1.635,5.644,1.369,8.152,0.613c2.519-0.759,6.63-4.206,7.774-5.193
					c1.123,1.931,2.279,3.823,3.507,5.631c0.546,0.768,1.054,1.587,1.62,2.294c0.555,0.725,1.105,1.443,1.649,2.154
					c1.178,1.431,2.267,2.764,3.397,4.067c0.567,0.663,1.117,1.275,1.675,1.912c-1.09-0.918-2.841-2.344-3.015-2.456
					c-2.948-1.899-9.761-3.834-12.798-1.344c-2.188,1.794-2.042,5.001-0.118,6.915c1.966,1.955,5.371,2.208,7.965,1.841
					c2.859-0.405,8.074-3.699,8.71-4.106c1.376,1.552,2.729,3.051,4.022,4.429c4.081,4.371,7.645,7.856,10.175,10.263
					c2.526,2.401,4.044,3.732,4.044,3.732l0.013,0.012c0.006,0.005,0.012,0.01,0.018,0.015c0.584,0.489,1.453,0.413,1.943-0.17
					c0.489-0.584,0.413-1.453-0.17-1.943C129.673,414.63,128.179,413.377,125.623,411.051z"/>
				<path d="M65.777,334.436c0.003-0.004,4.155-5.51,4.801-8.516c0.55-2.561,0.539-5.976-1.272-8.075
					c-1.773-2.055-4.962-2.428-6.906-0.373c-2.7,2.852-1.251,9.785,0.434,12.861C62.979,330.598,65.735,334.493,65.777,334.436z"/>
			</g>
		</g>
	</g>
	<g style="opacity:0.1;">
		<g>
			<path d="M154.881,336.691c-0.698-3.379-1.63-8.227-2.481-14.087c-0.25-1.69-0.485-3.484-0.71-5.331
				c0.755-0.143,6.796-1.325,9.15-2.989c2.139-1.513,4.443-4.034,4.531-6.805c0.087-2.713-2.008-5.145-4.83-4.95
				c-3.918,0.272-7.546,6.355-8.388,9.759c-0.054,0.218-0.401,2.866-0.549,4.221c-0.132-1.117-0.266-2.225-0.384-3.39
				c-0.182-1.674-0.32-3.449-0.464-5.169c-0.042-0.894-0.084-1.798-0.126-2.71c-0.062-0.92-0.009-1.803-0.02-2.72
				c0.014-1.342,0.096-2.726,0.174-4.107c1.716-0.082,6.747-0.413,9.015-1.547c2.343-1.171,5.002-3.314,5.509-6.039
				c0.496-2.669-1.205-5.391-4.025-5.625c-3.914-0.325-8.421,5.138-9.769,8.376c-0.044,0.105-0.258,0.819-0.503,1.668
				c0.118-1.346,0.23-2.691,0.396-4.051c0.466-3.859,1.062-7.775,1.642-11.702c0.121-0.818,0.229-1.637,0.347-2.456
				c1.444-0.062,6.898-0.372,9.275-1.56c2.343-1.171,5.002-3.314,5.509-6.04c0.496-2.669-1.205-5.391-4.025-5.625
				c-3.914-0.325-8.421,5.139-9.769,8.376c-0.048,0.116-0.301,0.969-0.577,1.925c0.285-2.137,0.542-4.273,0.731-6.398
				c0.336-3.718,0.465-7.398,0.308-10.973c0.51-0.017,6.911-0.25,9.553-1.571c2.343-1.171,5.002-3.314,5.509-6.039
				c0.496-2.669-1.205-5.391-4.025-5.625c-3.914-0.325-8.421,5.139-9.769,8.376c-0.096,0.23-0.99,3.322-1.272,4.437
				c-0.002-0.042,0.001-0.087-0.001-0.129c-0.199-3.751-0.853-7.308-1.637-10.65c-0.777-3.336-1.792-6.412-2.8-9.216
				c-1.001-2.809-2.089-5.317-3.071-7.529c-0.541-1.193-1.057-2.275-1.55-3.279c0.015,0.005,0.08,0.023,0.08,0.023
				c0.07,0.019-0.117-4.748-0.163-5.047c-0.536-3.466-3.608-9.848-7.487-10.467c-2.794-0.446-5.096,1.791-5.252,4.501
				c-0.158,2.768,1.912,5.484,3.908,7.18c2.045,1.738,7.363,3.36,8.688,3.745c0.491,1.053,1.003,2.183,1.543,3.446
				c0.931,2.227,1.962,4.751,2.897,7.569c0.251,0.75,0.491,1.568,0.738,2.355c-0.691-1.241-1.664-2.932-1.777-3.086
				c-2.072-2.829-7.74-7.077-11.467-5.839c-2.685,0.891-3.697,3.938-2.587,6.414c1.135,2.53,4.224,3.985,6.777,4.572
				c2.664,0.612,8.261-0.444,9.483-0.689c0.519,1.754,1.012,3.567,1.415,5.488c0.701,3.304,1.274,6.861,1.389,10.548
				c0.006,0.205-0.012,0.418-0.007,0.624c-0.236-0.673-1.792-4.27-1.93-4.509c-1.749-3.039-6.916-7.884-10.756-7.063
				c-2.767,0.591-4.108,3.508-3.275,6.092c0.85,2.639,3.76,4.425,6.234,5.288c2.85,0.994,9.477,0.361,9.726,0.337
				c0.064,3.454-0.134,7.006-0.538,10.602c-0.289,2.607-0.689,5.235-1.115,7.868c-0.327-0.868-1.775-4.211-1.907-4.441
				c-1.749-3.039-6.916-7.884-10.757-7.063c-2.767,0.591-4.107,3.508-3.275,6.091c0.85,2.639,3.761,4.426,6.234,5.288
				c2.782,0.971,9.134,0.393,9.67,0.342c-0.194,1.196-0.383,2.391-0.587,3.588c-0.664,3.908-1.348,7.822-1.903,11.706
				c-0.193,1.346-0.333,2.678-0.48,4.014c-0.53-1.286-1.54-3.608-1.649-3.798c-1.749-3.04-6.916-7.884-10.757-7.063
				c-2.767,0.592-4.108,3.508-3.276,6.092c0.85,2.639,3.761,4.425,6.234,5.288c2.484,0.867,7.836,0.496,9.341,0.37
				c-0.227,2.222-0.404,4.432-0.474,6.616c-0.01,0.942-0.081,1.904-0.038,2.809c0.023,0.913,0.045,1.817,0.068,2.712
				c0.111,1.85,0.209,3.569,0.357,5.288c0.069,0.87,0.154,1.688,0.231,2.532c-0.342-1.384-0.92-3.567-0.995-3.76
				c-1.268-3.269-5.642-8.841-9.562-8.611c-2.825,0.165-4.592,2.845-4.161,5.525c0.441,2.737,3.047,4.944,5.361,6.172
				c2.551,1.353,8.706,1.755,9.46,1.8c0.2,2.064,0.414,4.072,0.65,5.947c0.731,5.935,1.565,10.85,2.197,14.284
				c0.632,3.428,1.077,5.397,1.077,5.397l0.004,0.017c0.001,0.008,0.003,0.015,0.005,0.023c0.184,0.739,0.933,1.189,1.672,1.005
				c0.739-0.184,1.189-0.933,1.005-1.672C156.054,341.967,155.582,340.076,154.881,336.691z"/>
			<path d="M151.515,239.531c0.005-0.001,6.6-2.014,8.89-4.067c1.951-1.748,3.95-4.517,3.719-7.28
				c-0.226-2.705-2.586-4.881-5.367-4.362c-3.861,0.72-6.765,7.18-7.21,10.659C151.508,234.782,151.447,239.552,151.515,239.531z"/>
		</g>
	</g>
	<g>
		<g>
			<g>
				<path style="fill:#C6FF00;" d="M366.369,361.641c0.135,31.333,25.065,56.626,25.065,56.626s24.711-25.507,24.576-56.84
					c-0.135-31.333-25.065-56.626-25.065-56.626S366.234,330.308,366.369,361.641z"/>
				
					<line style="fill:#C6FF00;stroke:#FFFFFF;stroke-width:0.9103;stroke-miterlimit:10;" x1="391.434" y1="418.267" x2="390.945" y2="304.801"/>
				
					<line style="fill:#C6FF00;stroke:#FFFFFF;stroke-width:0.9103;stroke-miterlimit:10;" x1="391.12" y1="345.132" x2="377.171" y2="333.06"/>
				
					<line style="fill:#C6FF00;stroke:#FFFFFF;stroke-width:0.9103;stroke-miterlimit:10;" x1="391.421" y1="363.881" x2="408.519" y2="338.881"/>
				
					<line style="fill:#C6FF00;stroke:#FFFFFF;stroke-width:0.9103;stroke-miterlimit:10;" x1="391.247" y1="374.69" x2="370.654" y2="356.47"/>
				
					<line style="fill:#C6FF00;stroke:#FFFFFF;stroke-width:0.9103;stroke-miterlimit:10;" x1="391.53" y1="389.248" x2="411.746" y2="371.073"/>
				
					<line style="fill:#C6FF00;stroke:#FFFFFF;stroke-width:0.9103;stroke-miterlimit:10;" x1="391.585" y1="401.822" x2="375.648" y2="389.317"/>
			</g>
			<g>
				<path style="fill:#C6FF00;" d="M349.382,410.038c12.112,13.54,32.658,14.922,32.658,14.922s0.907-20.572-11.205-34.112
					c-12.112-13.541-32.658-14.922-32.658-14.922S337.27,396.498,349.382,410.038z"/>
				
					<line style="fill:#C6FF00;stroke:#FFFFFF;stroke-width:0.9103;stroke-miterlimit:10;" x1="382.04" y1="424.96" x2="338.177" y2="375.926"/>
				
					<line style="fill:#C6FF00;stroke:#FFFFFF;stroke-width:0.9103;stroke-miterlimit:10;" x1="353.768" y1="393.355" x2="343.073" y2="393.484"/>
				
					<line style="fill:#C6FF00;stroke:#FFFFFF;stroke-width:0.9103;stroke-miterlimit:10;" x1="361.112" y1="401.372" x2="358.912" y2="383.949"/>
				
					<line style="fill:#C6FF00;stroke:#FFFFFF;stroke-width:0.9103;stroke-miterlimit:10;" x1="365.195" y1="406.129" x2="349.252" y2="406.147"/>
				
					<line style="fill:#C6FF00;stroke:#FFFFFF;stroke-width:0.9103;stroke-miterlimit:10;" x1="370.918" y1="412.335" x2="372.696" y2="396.673"/>
				
					<line style="fill:#C6FF00;stroke:#FFFFFF;stroke-width:0.9103;stroke-miterlimit:10;" x1="375.779" y1="417.768" x2="364.055" y2="418.474"/>
			</g>
			<g>
				<path style="fill:#C6FF00;" d="M412.542,390.192c-12.599,13.089-12.443,33.68-12.443,33.68s20.582-0.631,33.181-13.72
					c12.599-13.089,12.443-33.681,12.443-33.681S425.141,377.103,412.542,390.192z"/>
				
					<line style="fill:#C6FF00;stroke:#FFFFFF;stroke-width:0.9103;stroke-miterlimit:10;" x1="400.099" y1="423.872" x2="445.723" y2="376.472"/>
				
					<line style="fill:#C6FF00;stroke:#FFFFFF;stroke-width:0.9103;stroke-miterlimit:10;" x1="429.506" y1="393.32" x2="428.578" y2="382.664"/>
				
					<line style="fill:#C6FF00;stroke:#FFFFFF;stroke-width:0.9103;stroke-miterlimit:10;" x1="422.059" y1="401.242" x2="439.269" y2="397.748"/>
				
					<line style="fill:#C6FF00;stroke:#FFFFFF;stroke-width:0.9103;stroke-miterlimit:10;" x1="417.62" y1="405.669" x2="416.412" y2="389.772"/>
				
					<line style="fill:#C6FF00;stroke:#FFFFFF;stroke-width:0.9103;stroke-miterlimit:10;" x1="411.859" y1="411.839" x2="427.609" y2="412.443"/>
				
					<line style="fill:#C6FF00;stroke:#FFFFFF;stroke-width:0.9103;stroke-miterlimit:10;" x1="406.803" y1="417.092" x2="405.224" y2="405.453"/>
			</g>
		</g>
		<g style="opacity:0.1;">
			<g>
				<path d="M366.369,361.641c0.135,31.333,25.065,56.626,25.065,56.626s24.711-25.507,24.576-56.84
					c-0.135-31.333-25.065-56.626-25.065-56.626S366.234,330.308,366.369,361.641z"/>
				<line x1="391.434" y1="418.267" x2="390.945" y2="304.801"/>
				<line x1="391.12" y1="345.132" x2="377.171" y2="333.06"/>
				<line x1="391.421" y1="363.881" x2="408.519" y2="338.881"/>
				<line x1="391.247" y1="374.69" x2="370.654" y2="356.47"/>
				<line x1="391.53" y1="389.248" x2="411.746" y2="371.073"/>
				<line x1="391.585" y1="401.822" x2="375.648" y2="389.317"/>
			</g>
			<g>
				<path d="M349.382,410.038c12.112,13.54,32.658,14.922,32.658,14.922s0.907-20.572-11.205-34.112
					c-12.112-13.541-32.658-14.922-32.658-14.922S337.27,396.498,349.382,410.038z"/>
				<line x1="382.04" y1="424.96" x2="338.177" y2="375.926"/>
				<line x1="353.768" y1="393.355" x2="343.073" y2="393.484"/>
				<line x1="361.112" y1="401.372" x2="358.912" y2="383.949"/>
				<line x1="365.195" y1="406.129" x2="349.252" y2="406.147"/>
				<line x1="370.918" y1="412.335" x2="372.696" y2="396.673"/>
				<line x1="375.779" y1="417.768" x2="364.055" y2="418.474"/>
			</g>
			<g>
				<path d="M412.542,390.192c-12.599,13.089-12.443,33.68-12.443,33.68s20.582-0.631,33.181-13.72
					c12.599-13.089,12.443-33.681,12.443-33.681S425.141,377.103,412.542,390.192z"/>
				<line x1="400.099" y1="423.872" x2="445.723" y2="376.472"/>
				<line x1="429.506" y1="393.32" x2="428.578" y2="382.664"/>
				<line x1="422.059" y1="401.242" x2="439.269" y2="397.748"/>
				<line x1="417.62" y1="405.669" x2="416.412" y2="389.772"/>
				<line x1="411.859" y1="411.839" x2="427.609" y2="412.443"/>
				<line x1="406.803" y1="417.092" x2="405.224" y2="405.453"/>
			</g>
		</g>
	</g>
</g>
<g id="Resume">
	<g>
		
			<rect x="126.785" y="105.781" style="fill:#FFFFFF;stroke:#263238;stroke-width:0.9875;stroke-linecap:round;stroke-linejoin:round;stroke-miterlimit:10;" width="246.681" height="317.511"/>
		<g>
			<rect x="126.785" y="105.781" style="fill:#C6FF00;" width="39.35" height="317.511"/>
			
				<rect x="243.012" y="152.688" style="fill:#C6FF00;stroke:#263238;stroke-width:0.9875;stroke-linecap:round;stroke-linejoin:round;stroke-miterlimit:10;" width="75.647" height="8.9"/>
			<rect x="157.829" y="228.522" style="fill:#C6FF00;" width="207.375" height="8.9"/>
			<rect x="157.829" y="350.84" style="fill:#C6FF00;" width="207.375" height="8.9"/>
			
				<rect x="243.012" y="168.015" style="fill:#C6FF00;stroke:#263238;stroke-width:0.9875;stroke-linecap:round;stroke-linejoin:round;stroke-miterlimit:10;" width="47.679" height="8.9"/>
			
				<rect x="243.012" y="183.029" style="fill:#C6FF00;stroke:#263238;stroke-width:0.9875;stroke-linecap:round;stroke-linejoin:round;stroke-miterlimit:10;" width="47.679" height="8.9"/>
			
				<rect x="231.54" y="247.216" style="fill:#C6FF00;stroke:#263238;stroke-width:0.9875;stroke-linecap:round;stroke-linejoin:round;stroke-miterlimit:10;" width="4.905" height="4.905"/>
			
				<rect x="231.54" y="310.372" style="fill:#C6FF00;stroke:#263238;stroke-width:0.9875;stroke-linecap:round;stroke-linejoin:round;stroke-miterlimit:10;" width="4.905" height="4.905"/>
			
				<rect x="300.828" y="247.216" style="fill:#C6FF00;stroke:#263238;stroke-width:0.9875;stroke-linecap:round;stroke-linejoin:round;stroke-miterlimit:10;" width="4.905" height="4.905"/>
			
				<rect x="300.828" y="310.372" style="fill:#C6FF00;stroke:#263238;stroke-width:0.9875;stroke-linecap:round;stroke-linejoin:round;stroke-miterlimit:10;" width="4.905" height="4.905"/>
		</g>
		
			<rect x="126.785" y="105.781" style="fill:#263238;stroke:#263238;stroke-width:0.9875;stroke-linecap:round;stroke-linejoin:round;stroke-miterlimit:10;" width="246.681" height="16.15"/>
		<g>
			<g>
				<path style="fill:#263238;" d="M287.831,250.633h-43.418c-0.773,0-1.4-0.627-1.4-1.401l0,0c0-0.773,0.627-1.4,1.4-1.4h43.418
					c0.773,0,1.401,0.627,1.401,1.4l0,0C289.232,250.005,288.605,250.633,287.831,250.633z"/>
				<path style="fill:#263238;" d="M287.831,257.635h-43.418c-0.773,0-1.4-0.627-1.4-1.401l0,0c0-0.773,0.627-1.401,1.4-1.401
					h43.418c0.773,0,1.401,0.627,1.401,1.401l0,0C289.232,257.008,288.605,257.635,287.831,257.635z"/>
				<path style="fill:#263238;" d="M287.831,264.638h-43.418c-0.773,0-1.4-0.627-1.4-1.401l0,0c0-0.773,0.627-1.401,1.4-1.401
					h43.418c0.773,0,1.401,0.627,1.401,1.401l0,0C289.232,264.011,288.605,264.638,287.831,264.638z"/>
				<path style="fill:#263238;" d="M287.831,271.641h-43.418c-0.773,0-1.4-0.627-1.4-1.401l0,0c0-0.774,0.627-1.401,1.4-1.401
					h43.418c0.773,0,1.401,0.627,1.401,1.401l0,0C289.232,271.014,288.605,271.641,287.831,271.641z"/>
				<path style="fill:#263238;" d="M287.831,278.644h-43.418c-0.773,0-1.4-0.627-1.4-1.401l0,0c0-0.773,0.627-1.401,1.4-1.401
					h43.418c0.773,0,1.401,0.627,1.401,1.401l0,0C289.232,278.017,288.605,278.644,287.831,278.644z"/>
			</g>
			<g>
				<path style="fill:#263238;" d="M353.51,250.633h-43.418c-0.773,0-1.401-0.627-1.401-1.401l0,0c0-0.773,0.627-1.4,1.401-1.4
					h43.418c0.773,0,1.401,0.627,1.401,1.4l0,0C354.911,250.005,354.284,250.633,353.51,250.633z"/>
				<path style="fill:#263238;" d="M353.51,257.635h-43.418c-0.773,0-1.401-0.627-1.401-1.401l0,0c0-0.773,0.627-1.401,1.401-1.401
					h43.418c0.773,0,1.401,0.627,1.401,1.401l0,0C354.911,257.008,354.284,257.635,353.51,257.635z"/>
				<path style="fill:#263238;" d="M353.51,264.638h-43.418c-0.773,0-1.401-0.627-1.401-1.401l0,0c0-0.773,0.627-1.401,1.401-1.401
					h43.418c0.773,0,1.401,0.627,1.401,1.401l0,0C354.911,264.011,354.284,264.638,353.51,264.638z"/>
				<path style="fill:#263238;" d="M353.51,271.641h-43.418c-0.773,0-1.401-0.627-1.401-1.401l0,0c0-0.774,0.627-1.401,1.401-1.401
					h43.418c0.773,0,1.401,0.627,1.401,1.401l0,0C354.911,271.014,354.284,271.641,353.51,271.641z"/>
				<path style="fill:#263238;" d="M353.51,278.644h-43.418c-0.773,0-1.401-0.627-1.401-1.401l0,0c0-0.773,0.627-1.401,1.401-1.401
					h43.418c0.773,0,1.401,0.627,1.401,1.401l0,0C354.911,278.017,354.284,278.644,353.51,278.644z"/>
			</g>
			<g>
				<path style="fill:#263238;" d="M287.831,312.725h-43.418c-0.773,0-1.4-0.627-1.4-1.401l0,0c0-0.774,0.627-1.401,1.4-1.401
					h43.418c0.773,0,1.401,0.627,1.401,1.401l0,0C289.232,312.098,288.605,312.725,287.831,312.725z"/>
				<path style="fill:#263238;" d="M287.831,319.728h-43.418c-0.773,0-1.4-0.627-1.4-1.401l0,0c0-0.774,0.627-1.401,1.4-1.401
					h43.418c0.773,0,1.401,0.627,1.401,1.401l0,0C289.232,319.101,288.605,319.728,287.831,319.728z"/>
				<path style="fill:#263238;" d="M287.831,326.731h-43.418c-0.773,0-1.4-0.627-1.4-1.401l0,0c0-0.773,0.627-1.401,1.4-1.401
					h43.418c0.773,0,1.401,0.627,1.401,1.401l0,0C289.232,326.104,288.605,326.731,287.831,326.731z"/>
				<path style="fill:#263238;" d="M287.831,333.734h-43.418c-0.773,0-1.4-0.627-1.4-1.401l0,0c0-0.773,0.627-1.4,1.4-1.4h43.418
					c0.773,0,1.401,0.627,1.401,1.4l0,0C289.232,333.107,288.605,333.734,287.831,333.734z"/>
				<path style="fill:#263238;" d="M287.831,340.737h-43.418c-0.773,0-1.4-0.627-1.4-1.401l0,0c0-0.773,0.627-1.4,1.4-1.4h43.418
					c0.773,0,1.401,0.627,1.401,1.4l0,0C289.232,340.11,288.605,340.737,287.831,340.737z"/>
			</g>
			<g>
				<path style="fill:#263238;" d="M353.51,312.725h-43.418c-0.773,0-1.401-0.627-1.401-1.401l0,0c0-0.774,0.627-1.401,1.401-1.401
					h43.418c0.773,0,1.401,0.627,1.401,1.401l0,0C354.911,312.098,354.284,312.725,353.51,312.725z"/>
				<path style="fill:#263238;" d="M353.51,319.728h-43.418c-0.773,0-1.401-0.627-1.401-1.401l0,0c0-0.774,0.627-1.401,1.401-1.401
					h43.418c0.773,0,1.401,0.627,1.401,1.401l0,0C354.911,319.101,354.284,319.728,353.51,319.728z"/>
				<path style="fill:#263238;" d="M353.51,326.731h-43.418c-0.773,0-1.401-0.627-1.401-1.401l0,0c0-0.773,0.627-1.401,1.401-1.401
					h43.418c0.773,0,1.401,0.627,1.401,1.401l0,0C354.911,326.104,354.284,326.731,353.51,326.731z"/>
				<path style="fill:#263238;" d="M353.51,333.734h-43.418c-0.773,0-1.401-0.627-1.401-1.401l0,0c0-0.773,0.627-1.4,1.401-1.4
					h43.418c0.773,0,1.401,0.627,1.401,1.4l0,0C354.911,333.107,354.284,333.734,353.51,333.734z"/>
				<path style="fill:#263238;" d="M353.51,340.737h-43.418c-0.773,0-1.401-0.627-1.401-1.401l0,0c0-0.773,0.627-1.4,1.401-1.4
					h43.418c0.773,0,1.401,0.627,1.401,1.4l0,0C354.911,340.11,354.284,340.737,353.51,340.737z"/>
			</g>
			<g>
				<path style="fill:#263238;" d="M353.51,372.702h-43.418c-0.773,0-1.401-0.627-1.401-1.4l0,0c0-0.773,0.627-1.401,1.401-1.401
					h43.418c0.773,0,1.401,0.627,1.401,1.401l0,0C354.911,372.075,354.284,372.702,353.51,372.702z"/>
				<path style="fill:#263238;" d="M353.51,379.705h-43.418c-0.773,0-1.401-0.627-1.401-1.4l0,0c0-0.773,0.627-1.401,1.401-1.401
					h43.418c0.773,0,1.401,0.627,1.401,1.401l0,0C354.911,379.078,354.284,379.705,353.51,379.705z"/>
				<path style="fill:#263238;" d="M353.51,386.708h-43.418c-0.773,0-1.401-0.627-1.401-1.401l0,0c0-0.774,0.627-1.401,1.401-1.401
					h43.418c0.773,0,1.401,0.627,1.401,1.401l0,0C354.911,386.081,354.284,386.708,353.51,386.708z"/>
				<path style="fill:#263238;" d="M353.51,393.711h-43.418c-0.773,0-1.401-0.627-1.401-1.401v0c0-0.773,0.627-1.401,1.401-1.401
					h43.418c0.773,0,1.401,0.627,1.401,1.401v0C354.911,393.084,354.284,393.711,353.51,393.711z"/>
				<path style="fill:#263238;" d="M353.51,400.714h-43.418c-0.773,0-1.401-0.627-1.401-1.401l0,0c0-0.773,0.627-1.401,1.401-1.401
					h43.418c0.773,0,1.401,0.627,1.401,1.401l0,0C354.911,400.087,354.284,400.714,353.51,400.714z"/>
			</g>
			<path style="fill:#263238;" d="M349.309,291.25c-2.775,0-5.073,2.02-5.518,4.669h-6.704c-0.445-2.649-2.743-4.669-5.518-4.669
				c-2.775,0-5.073,2.02-5.518,4.669h-6.704c-0.445-2.649-2.743-4.669-5.518-4.669s-5.073,2.02-5.518,4.669h-6.704
				c-0.445-2.649-2.743-4.669-5.518-4.669c-2.775,0-5.073,2.02-5.518,4.669h-6.704c-0.445-2.649-2.743-4.669-5.518-4.669
				s-5.073,2.02-5.518,4.669h-6.704c-0.445-2.649-2.743-4.669-5.518-4.669c-2.775,0-5.073,2.02-5.518,4.669h-6.704
				c-0.445-2.649-2.743-4.669-5.518-4.669c-3.094,0-5.603,2.508-5.603,5.602c0,3.094,2.508,5.602,5.603,5.602
				c2.775,0,5.073-2.02,5.518-4.669h6.704c0.445,2.649,2.743,4.669,5.518,4.669c2.775,0,5.073-2.02,5.518-4.669h6.704
				c0.445,2.649,2.743,4.669,5.518,4.669s5.073-2.02,5.518-4.669h6.704c0.445,2.649,2.743,4.669,5.518,4.669
				c2.775,0,5.073-2.02,5.518-4.669h6.704c0.445,2.649,2.743,4.669,5.518,4.669s5.073-2.02,5.518-4.669h6.704
				c0.445,2.649,2.743,4.669,5.518,4.669c2.775,0,5.073-2.02,5.518-4.669h6.704c0.445,2.649,2.743,4.669,5.518,4.669
				c3.094,0,5.602-2.508,5.602-5.602C354.911,293.758,352.403,291.25,349.309,291.25z"/>
		</g>
		<g>
			<g>
				<g>
					
						<path style="fill:#C6FF00;stroke:#263238;stroke-width:0.9875;stroke-linecap:round;stroke-linejoin:round;stroke-miterlimit:10;" d="
						M218.685,370.42c-5.211,0-9.435,4.224-9.435,9.435c0,5.211,4.224,9.436,9.435,9.436c5.211,0,9.436-4.224,9.436-9.436
						C228.121,374.644,223.896,370.42,218.685,370.42z M218.685,384.561c-2.599,0-4.706-2.107-4.706-4.706
						c0-2.599,2.107-4.706,4.706-4.706c2.599,0,4.706,2.107,4.706,4.706C223.391,382.454,221.284,384.561,218.685,384.561z"/>
					
						<path style="fill:#263238;stroke:#263238;stroke-width:0.9875;stroke-linecap:round;stroke-linejoin:round;stroke-miterlimit:10;" d="
						M221.495,383.61l4.517,2.186c1.317-1.622,2.108-3.688,2.108-5.94c0-5.196-4.2-9.408-9.39-9.433v4.732
						c2.577,0.025,4.66,2.118,4.66,4.701C223.391,381.396,222.64,382.751,221.495,383.61z"/>
				</g>
				
					<path style="fill:#C6FF00;stroke:#263238;stroke-width:0.9875;stroke-linecap:round;stroke-linejoin:round;stroke-miterlimit:10;" d="
					M223.229,401.015h-8.997c-1.242,0-2.249-1.007-2.249-2.249l0,0c0-1.242,1.007-2.249,2.249-2.249h8.997
					c1.242,0,2.249,1.007,2.249,2.249l0,0C225.478,400.008,224.471,401.015,223.229,401.015z"/>
			</g>
			<g>
				<g>
					
						<path style="fill:#C6FF00;stroke:#263238;stroke-width:0.9875;stroke-linecap:round;stroke-linejoin:round;stroke-miterlimit:10;" d="
						M246.822,370.42c-5.211,0-9.436,4.224-9.436,9.435c0,5.211,4.224,9.436,9.436,9.436c5.211,0,9.435-4.224,9.435-9.436
						C256.258,374.644,252.033,370.42,246.822,370.42z M246.822,384.561c-2.599,0-4.706-2.107-4.706-4.706
						c0-2.599,2.107-4.706,4.706-4.706c2.599,0,4.706,2.107,4.706,4.706C251.528,382.454,249.421,384.561,246.822,384.561z"/>
					
						<path style="fill:#263238;stroke:#263238;stroke-width:0.9875;stroke-linecap:round;stroke-linejoin:round;stroke-miterlimit:10;" d="
						M256.206,378.868c-0.492-4.732-4.481-8.423-9.338-8.446v4.732c2.577,0.025,4.66,2.118,4.66,4.701
						c0,0.188-0.034,0.366-0.055,0.548L256.206,378.868z"/>
				</g>
				
					<path style="fill:#C6FF00;stroke:#263238;stroke-width:0.9875;stroke-linecap:round;stroke-linejoin:round;stroke-miterlimit:10;" d="
					M251.32,401.015h-8.996c-1.242,0-2.249-1.007-2.249-2.249l0,0c0-1.242,1.007-2.249,2.249-2.249h8.996
					c1.242,0,2.249,1.007,2.249,2.249l0,0C253.569,400.008,252.563,401.015,251.32,401.015z"/>
			</g>
			<g>
				<g>
					
						<path style="fill:#C6FF00;stroke:#263238;stroke-width:0.9875;stroke-linecap:round;stroke-linejoin:round;stroke-miterlimit:10;" d="
						M275.124,370.42c-5.211,0-9.435,4.224-9.435,9.435c0,5.211,4.224,9.436,9.435,9.436s9.436-4.224,9.436-9.436
						C284.559,374.644,280.335,370.42,275.124,370.42z M275.124,384.561c-2.599,0-4.706-2.107-4.706-4.706
						c0-2.599,2.107-4.706,4.706-4.706c2.599,0,4.706,2.107,4.706,4.706C279.829,382.454,277.723,384.561,275.124,384.561z"/>
					
						<path style="fill:#263238;stroke:#263238;stroke-width:0.9875;stroke-linecap:round;stroke-linejoin:round;stroke-miterlimit:10;" d="
						M275.169,370.422v4.732c2.577,0.025,4.66,2.118,4.66,4.701c0,2.599-2.107,4.706-4.706,4.706c-1.447,0-2.725-0.667-3.588-1.695
						l-3.74,2.927c1.73,2.132,4.369,3.497,7.328,3.497c5.211,0,9.436-4.224,9.436-9.436
						C284.559,374.66,280.359,370.447,275.169,370.422z"/>
				</g>
				
					<path style="fill:#C6FF00;stroke:#263238;stroke-width:0.9875;stroke-linecap:round;stroke-linejoin:round;stroke-miterlimit:10;" d="
					M279.622,401.015h-8.996c-1.242,0-2.249-1.007-2.249-2.249l0,0c0-1.242,1.007-2.249,2.249-2.249h8.996
					c1.242,0,2.249,1.007,2.249,2.249l0,0C281.871,400.008,280.864,401.015,279.622,401.015z"/>
			</g>
		</g>
	</g>
</g>
<g id="Character">
	<g>
		<circle style="fill:#FFFFFF;" cx="178.204" cy="182.679" r="42.239"/>
		<g>
			<g>
				
					<path style="fill:#FFFFFF;stroke:#263238;stroke-width:1.0231;stroke-linecap:round;stroke-linejoin:round;stroke-miterlimit:10;" d="
					M190.969,417.682c0,0,6.101,9.17,5.256,12.798c-0.845,3.628-6.197,2.512-8.733-1.395c-2.535-3.907-8.955-9.754-7.828-12.266
					C180.791,414.307,188.716,415.45,190.969,417.682z"/>
				
					<path style="fill:#FFFFFF;stroke:#263238;stroke-width:1.0231;stroke-linecap:round;stroke-linejoin:round;stroke-miterlimit:10;" d="
					M164.794,417.171c0,0-7.37,10.942-6.197,13.932c1.173,2.99,4.987,2.093,7.92-0.598c2.933-2.691,8.755-10.286,8.755-10.286
					S170.367,414.181,164.794,417.171z"/>
				
					<path style="fill:none;stroke:#263238;stroke-width:0.7673;stroke-linecap:round;stroke-linejoin:round;stroke-miterlimit:10;" d="
					M158.596,431.103c0,0,2.433,0.581,5.786-1.128c3.353-1.709,9.218-9.374,9.218-9.374"/>
				
					<path style="fill:none;stroke:#263238;stroke-width:0.7673;stroke-linecap:round;stroke-linejoin:round;stroke-miterlimit:10;" d="
					M181.745,418.648c0,0,3.18,5.987,6.773,9.406c3.593,3.418,5.354,4.364,7.707,2.426"/>
			</g>
			<g>
				
					<path style="fill:#263238;stroke:#263238;stroke-width:1.0231;stroke-linecap:round;stroke-linejoin:round;stroke-miterlimit:10;" d="
					M154.445,280.651c0,0-6.453,13.158-6.16,18.54c0.293,5.383,1.467,32.595,3.227,41.566c1.76,8.971,3.52,31.317,4.693,40.288
					c1.173,8.971,8.882,29.846,8.882,29.846s-1.173,4.785-0.293,6.28c0.88,1.495,10.184,3.944,10.477,3.048
					c0.293-0.897,1.76-3.589,2.053-6.28c0.293-2.691-4.107-31.399-2.347-37.679c1.76-6.28,2.105-48.5,2.347-52.847
					c0.235-4.212-0.071-12.019-0.071-12.019s1.76,0.598,2.933-0.897c1.173-1.495,5.058,39.15,6.231,48.719
					c1.173,9.569-1.467,12.26-2.347,18.241c-0.88,5.981-2.933,25.418-2.933,27.81c0,2.392-2.64,10.167-1.467,11.662
					c1.173,1.495,3.659,1.25,4.68,1.534c3.063,0.852,5.446-0.482,6.619-0.781c1.173-0.299,2.161-4.634,2.161-4.634
					s9.42-26.621,11.18-37.685c1.76-11.064,4.693-31.616,4.107-44.176c-0.587-12.559-4.107-37.978-4.107-37.978l-0.88-7.476
					L154.445,280.651z"/>
				
					<path style="fill:none;stroke:#FFFFFF;stroke-width:0.5066;stroke-linecap:round;stroke-linejoin:round;stroke-miterlimit:10;" d="
					M150.32,295.873c0,0-0.567,7.378,4.257,12.202"/>
				
					<path style="fill:none;stroke:#FFFFFF;stroke-width:0.5066;stroke-linecap:round;stroke-linejoin:round;stroke-miterlimit:10;" d="
					M150.604,306.372c0,0,2.838,4.824,6.243,5.392"/>
				
					<path style="fill:none;stroke:#FFFFFF;stroke-width:0.5115;stroke-linecap:round;stroke-linejoin:round;stroke-miterlimit:10;" d="
					M173.304,387.128c0,0-3.973,9.546-4.54,14.754c-0.567,5.207,4.54,3.182,5.675,6.654c1.135,3.471-6.81,3.182-5.391,4.05
					c1.419,0.868,5.675,1.446,5.675,1.446"/>
				
					<path style="fill:none;stroke:#FFFFFF;stroke-width:0.5115;stroke-linecap:round;stroke-linejoin:round;stroke-miterlimit:10;" d="
					M180.966,410.849c0.851-0.289,10.499-2.025,9.364-7.232c-1.135-5.207-6.81-5.496-5.959-11.571
					c0.851-6.075,9.648-19.382,9.648-23.143c0-3.761-6.243-17.769-6.81-26.448"/>
				
					<path style="fill:none;stroke:#FFFFFF;stroke-width:0.5066;stroke-linecap:round;stroke-linejoin:round;stroke-miterlimit:10;" d="
					M194.87,295.305c0,0-6.527,9.364-7.378,10.783c-0.851,1.419,7.661-6.243,7.661-6.243"/>
				
					<path style="fill:none;stroke:#FFFFFF;stroke-width:0.5066;stroke-linecap:round;stroke-linejoin:round;stroke-miterlimit:10;" d="
					M177.791,292.007c0,0,0.708,6.842,0.708,8.258c0,1.416,0,7.786,0,7.786"/>
				
					<path style="fill:none;stroke:#FFFFFF;stroke-width:0.5066;stroke-linecap:round;stroke-linejoin:round;stroke-miterlimit:10;" d="
					M178.499,303.803c0,0,3.067-0.472,3.775-2.831c0.708-2.359,0.472-7.078,0.472-7.078"/>
			</g>
			<g>
				
					<path style="fill:#C6FF00;stroke:#263238;stroke-width:1.0133;stroke-linecap:round;stroke-linejoin:round;stroke-miterlimit:10;" d="
					M237.749,210.839c-3.52-10.267-4.106-15.84-4.4-18.773c-0.293-2.933-3.52-2.053-3.52-2.053s-7.04,4.107-7.04,4.987
					c0,0.88,3.227,22.586,3.813,26.399s0.587,6.747,0.587,6.747s-12.32-13.2-15.546-16.426c-2.465-2.464-4.417-4.58-6.508-5.837
					c-1.129-1.032-3.089-1.371-6.105-2.376c-5.28-1.76-10.853-5.867-17.306-5.573c-6.453,0.293-12.32,2.933-12.32,2.933
					s-9.386,4.4-15.84,7.333c-0.863,0.392-1.559,0.807-2.131,1.245c-1.061-0.136-3.274,0.432-5.788,6.089
					c-3.52,7.92-19.359,28.746-22,36.079c-2.64,7.333,2.933,14.666,9.093,20.533c6.16,5.867,12.613,13.786,12.613,13.786
					l6.953-8.622c0.277,2.415,0.631,4.57,0.967,5.688c0.88,2.933,3.813,6.16,15.546,7.04c11.733,0.88,38.108,2.466,37.252-3.52
					c-1.215-8.495-0.587-35.786-1.173-43.119c-0.243-3.041-0.032-8.454,0.298-14.103c1.349,1.715,3.966,4.881,5.85,6.137
					c2.64,1.76,13.798,10.02,18.198,11.78c4.4,1.76,10.56-1.173,13.2-7.04C245.083,234.305,241.269,221.105,237.749,210.839z
					 M142.125,259.531c-1.173-4.693-1.76-6.453-1.76-6.453s7.522-8.101,11.149-12.416c0.489,11.589,0.795,24.263,0.456,26.133
					c-0.328,1.802-0.157,5.727,0.21,9.354C150.22,273.464,143.135,263.569,142.125,259.531z"/>
				<path style="opacity:0.1;" d="M237.749,210.839c-3.52-10.267-4.106-15.84-4.4-18.773c-0.293-2.933-3.52-2.053-3.52-2.053
					s-7.04,4.107-7.04,4.987c0,0.88,3.227,22.586,3.813,26.399s0.587,6.747,0.587,6.747s-12.32-13.2-15.546-16.426
					c-2.465-2.464-4.417-4.58-6.508-5.837c-1.129-1.032-3.089-1.371-6.105-2.376c-5.28-1.76-10.853-5.867-17.306-5.573
					c-6.453,0.293-12.32,2.933-12.32,2.933s-9.386,4.4-15.84,7.333c-0.863,0.392-1.559,0.807-2.131,1.245
					c-1.061-0.136-3.274,0.432-5.788,6.089c-3.52,7.92-19.359,28.746-22,36.079c-2.64,7.333,2.933,14.666,9.093,20.533
					c6.16,5.867,12.613,13.786,12.613,13.786l6.953-8.622c0.277,2.415,0.631,4.57,0.967,5.688c0.88,2.933,3.813,6.16,15.546,7.04
					c11.733,0.88,38.108,2.466,37.252-3.52c-1.215-8.495-0.587-35.786-1.173-43.119c-0.243-3.041-0.032-8.454,0.298-14.103
					c1.349,1.715,3.966,4.881,5.85,6.137c2.64,1.76,13.798,10.02,18.198,11.78c4.4,1.76,10.56-1.173,13.2-7.04
					C245.083,234.305,241.269,221.105,237.749,210.839z M142.125,259.531c-1.173-4.693-1.76-6.453-1.76-6.453
					s7.522-8.101,11.149-12.416c0.489,11.589,0.795,24.263,0.456,26.133c-0.328,1.802-0.157,5.727,0.21,9.354
					C150.22,273.464,143.135,263.569,142.125,259.531z"/>
				
					<path style="fill:none;stroke:#263238;stroke-width:0.7599;stroke-linecap:round;stroke-linejoin:round;stroke-miterlimit:10;" d="
					M155.144,239.404c0,0,2.554-3.689,4.824-8.797"/>
				
					<path style="fill:none;stroke:#263238;stroke-width:0.7599;stroke-linecap:round;stroke-linejoin:round;stroke-miterlimit:10;" d="
					M162.522,231.459c0,0-0.851,1.986-2.838,3.689"/>
				
					<path style="fill:none;stroke:#263238;stroke-width:1.0133;stroke-linecap:round;stroke-linejoin:round;stroke-miterlimit:10;" d="
					M227.19,228.145c0,0-0.254,4.733,4.002,8.989"/>
				
					<path style="fill:none;stroke:#263238;stroke-width:1.0133;stroke-linecap:round;stroke-linejoin:round;stroke-miterlimit:10;" d="
					M228.354,232.878c0,0-0.567,3.689,1.703,7.662"/>
				
					<path style="fill:none;stroke:#263238;stroke-width:0.7599;stroke-linecap:round;stroke-linejoin:round;stroke-miterlimit:10;" d="
					M140.365,253.078c0,0-2.158-2.047-7.481-1.16"/>
				
					<path style="fill:none;stroke:#263238;stroke-width:0.7599;stroke-linecap:round;stroke-linejoin:round;stroke-miterlimit:10;" d="
					M129.927,250.735c0,0,1.479-2.366,7.097-0.591"/>
				
					<path style="fill:none;stroke:#263238;stroke-width:0.7599;stroke-linecap:round;stroke-linejoin:round;stroke-miterlimit:10;" d="
					M211.545,220.276c-1.183,0.296-6.21,8.872-6.21,8.872l12.124-3.253"/>
			</g>
			<g>
				
					<path style="fill:#FFFFFF;stroke:#263238;stroke-width:1.0133;stroke-linecap:round;stroke-linejoin:round;stroke-miterlimit:10;" d="
					M176.71,214.433c0,0,2.27,3.121,7.378,1.703c5.108-1.419,6.81-6.81,5.959-10.215
					C189.195,202.515,172.169,205.353,176.71,214.433z"/>
				
					<path style="fill:#FFFFFF;stroke:#263238;stroke-width:1.0133;stroke-linecap:round;stroke-linejoin:round;stroke-miterlimit:10;" d="
					M171.847,194.989c0,0-3.424,2.283-3.88,4.337c-0.456,2.054,0.685,8.673,1.598,10.956c0.913,2.282,3.88,7.532,3.88,7.532
					s10.271-5.934,10.956-6.391c0.685-0.456,7.988,3.652,9.586,2.967c1.598-0.685-3.88-14.608-6.391-17.575
					C185.085,193.848,175.499,192.251,171.847,194.989z"/>
				<g>
					
						<path style="fill:#FFFFFF;stroke:#263238;stroke-width:1.0133;stroke-linecap:round;stroke-linejoin:round;stroke-miterlimit:10;" d="
						M170.021,187.458c0,0,0.228,3.652,0.685,9.13c0.456,5.478,2.282,9.814,5.25,12.325c2.967,2.511,7.304,3.88,8.445,2.511
						c1.141-1.369,2.511-7.076,2.054-10.499c-0.457-3.424-1.141-10.727-1.141-10.727L170.021,187.458z"/>
					<path style="opacity:0.5;fill:#C6FF00;" d="M185.959,196.648c-0.339-3.187-0.645-6.452-0.645-6.452l-15.292-2.739
						c0,0,0.228,3.652,0.685,9.13c0.232,2.785,0.822,5.271,1.732,7.376L185.959,196.648z"/>
				</g>
			</g>
			<g>
				
					<path style="fill:#FFFFFF;stroke:#263238;stroke-width:1.0133;stroke-linecap:round;stroke-linejoin:round;stroke-miterlimit:10;" d="
					M165,181.98c0,0-3.424-3.424-4.108-0.457c-0.685,2.967,2.054,7.532,5.934,6.391v-2.739L165,181.98z"/>
				
					<path style="opacity:0.5;fill:#C6FF00;stroke:#263238;stroke-width:1.0133;stroke-linecap:round;stroke-linejoin:round;stroke-miterlimit:10;" d="
					M165,181.98c0,0-3.424-3.424-4.108-0.457c-0.685,2.967,2.054,7.532,5.934,6.391v-2.739L165,181.98z"/>
				<g>
					
						<path style="fill:#FFFFFF;stroke:#263238;stroke-width:1.0133;stroke-linecap:round;stroke-linejoin:round;stroke-miterlimit:10;" d="
						M162.033,175.817c0,0,5.706,15.292,10.727,18.259c5.021,2.967,15.064,5.706,17.803-5.021
						c2.739-10.727-4.565-26.248-7.076-30.813c-2.511-4.565-11.869-5.934-17.803-1.369
						C159.751,161.438,158.381,165.775,162.033,175.817z"/>
					<path style="opacity:0.5;fill:#C6FF00;" d="M168.33,162.873c3.601-1.8,7.715-1.8,7.715-1.8l5.695-4.789
						c-3.743-2.885-11.09-3.23-16.055,0.589c-5.934,4.565-7.304,8.902-3.652,18.944c0,0,5.706,15.292,10.727,18.259
						c1.55,0.916,3.58,1.809,5.725,2.292c-2.424-3.117-6.146-8.077-7.326-10.606c-1.8-3.858-2.572-11.831-4.887-16.46
						C163.957,164.673,164.729,164.673,168.33,162.873z"/>
					
						<path style="fill:none;stroke:#263238;stroke-width:1.0133;stroke-linecap:round;stroke-linejoin:round;stroke-miterlimit:10;" d="
						M180.292,171.252c0,0,2.282,4.108,1.369,5.021c-0.913,0.913-2.283,0.456-2.283,0.456"/>
					
						<path style="fill:none;stroke:#263238;stroke-width:2.0265;stroke-linecap:round;stroke-linejoin:round;stroke-miterlimit:10;" d="
						M169.793,170.568c0,0,0.457-2.739,3.88-2.739"/>
					
						<path style="fill:none;stroke:#263238;stroke-width:1.0133;stroke-linecap:round;stroke-linejoin:round;stroke-miterlimit:10;" d="
						M171.847,173.306c0,0,2.511,1.141,3.424-1.369"/>
					
						<path style="fill:none;stroke:#263238;stroke-width:1.0133;stroke-linecap:round;stroke-linejoin:round;stroke-miterlimit:10;" d="
						M182.803,171.48c0,0,2.511,1.141,3.424-1.37"/>
					
						<path style="fill:none;stroke:#263238;stroke-width:2.0265;stroke-linecap:round;stroke-linejoin:round;stroke-miterlimit:10;" d="
						M180.722,166.235c0.97-0.902,2.56-1.648,4.681-0.189"/>
				</g>
			</g>
			<g>
				
					<path style="fill:#263238;stroke:#263238;stroke-width:1.0133;stroke-linecap:round;stroke-linejoin:round;stroke-miterlimit:10;" d="
					M190.958,180.294c-2.661-1.167-8.982-3.721-11.122-2.651c-2.739,1.369-9.814,6.163-9.814,9.814c0,0-4.565-6.163-4.565-8.445
					s1.826-2.967,0.228-5.934c-1.598-2.967-3.88-3.195-3.196-6.619c0.634-3.17,6.936-6.53,10.042-7.011
					c1.673,1.497,4.117,2.446,6.848,2.446c5.042,0,9.13-3.219,9.13-7.19c0-3.971-4.088-7.189-9.13-7.189
					c-1.17,0-2.285,0.179-3.312,0.495c-4.781-0.353-5.684,3.193-9.006,5.13c-3.405,1.986-5.391,7.661-5.391,7.661l0.138-0.029
					c-2.417,3.533-2.408,7.803,0.225,15.044c0,0,5.706,15.292,10.727,18.259c5.021,2.967,15.064,5.706,17.803-5.021
					C191.253,186.355,191.305,183.35,190.958,180.294z"/>
				
					<path style="fill:none;stroke:#FFFFFF;stroke-width:1.0133;stroke-linecap:round;stroke-linejoin:round;stroke-miterlimit:10;" d="
					M185.549,180.058c0,0-3.424,4.793-7.304,1.598"/>
			</g>
			
				<path style="fill:#FFFFFF;stroke:#263238;stroke-width:1.0133;stroke-linecap:round;stroke-linejoin:round;stroke-miterlimit:10;" d="
				M152.685,276.837c0,0,2.347,1.467,3.52,3.227c1.173,1.76,3.813,4.693,3.813,4.693s3.227,0.293,2.933,1.76
				c-0.293,1.467-0.88,2.347-2.347,2.347s-4.693-2.933-4.693-2.933l-4.693,7.333c0,0-4.4-3.227-5.867-7.333L152.685,276.837z"/>
			
				<circle style="fill:none;stroke:#263238;stroke-width:2.0265;stroke-linecap:round;stroke-linejoin:round;stroke-miterlimit:10;" cx="178.204" cy="182.679" r="42.239"/>
			<g>
				
					<path style="fill:#FFFFFF;stroke:#263238;stroke-width:1.0133;stroke-linecap:round;stroke-linejoin:round;stroke-miterlimit:10;" d="
					M216.337,174.466c0,0-2.933-0.293-3.52,1.467c-0.587,1.76-1.467,3.52-1.467,4.693c0,1.173,0.293,2.053,1.76,2.347
					s2.347-1.76,2.347-1.76L216.337,174.466z"/>
				
					<path style="fill:#FFFFFF;stroke:#263238;stroke-width:1.0133;stroke-linecap:round;stroke-linejoin:round;stroke-miterlimit:10;" d="
					M216.923,172.413c0,0-1.466,7.92-1.466,10.266c0,2.347,1.173,4.107,1.76,4.987c0.587,0.88,2.053,1.173,2.053,1.173l1.467-1.76
					c0,0-1.76,2.347,0.587,5.28c2.347,2.933,4.106,2.64,6.16,1.76c2.053-0.88,2.64-2.053,1.76-5.28
					c-0.88-3.227-1.467-8.507-2.053-11.733c-0.587-3.227-2.64-4.4-3.813-4.4C222.203,172.706,218.977,171.533,216.923,172.413z"/>
				<g>
					
						<path style="fill:none;stroke:#263238;stroke-width:0.5066;stroke-linecap:round;stroke-linejoin:round;stroke-miterlimit:10;" d="
						M215.846,184.333c0,0-0.521-1.823,1.693-2.083c2.213-0.26,5.859-0.651,5.859-0.651"/>
					
						<path style="fill:none;stroke:#263238;stroke-width:0.5066;stroke-linecap:round;stroke-linejoin:round;stroke-miterlimit:10;" d="
						M216.107,179.646c0,0,5.077-1.302,6.9-1.042"/>
					
						<path style="fill:none;stroke:#263238;stroke-width:0.5066;stroke-linecap:round;stroke-linejoin:round;stroke-miterlimit:10;" d="
						M216.497,176c0,0,3.776-0.651,5.728-0.521"/>
					
						<path style="fill:none;stroke:#263238;stroke-width:0.5066;stroke-linecap:round;stroke-linejoin:round;stroke-miterlimit:10;" d="
						M218.19,185.765c0,0,1.172,1.172,2.994,0.781"/>
				</g>
			</g>
		</g>
	</g>
</g>
</svg>
